<?xml version="1.0" standalone="no"?>
<!DOCTYPE svg PUBLIC "-//W3C//DTD SVG 20010904//EN"
 "http://www.w3.org/TR/2001/REC-SVG-20010904/DTD/svg10.dtd">
<svg version="1.0" xmlns="http://www.w3.org/2000/svg"
 width="1280.000000pt" height="1002.000000pt" viewBox="0 0 1280.000000 1002.000000"
 preserveAspectRatio="xMidYMid meet">
<metadata>
Created by potrace 1.15, written by Peter Selinger 2001-2017
</metadata>
<g transform="translate(0.000000,1002.000000) scale(0.100000,-0.100000)"
fill="#000000" stroke="none">
<path d="M11010 10013 c-353 -34 -627 -123 -860 -278 -161 -107 -345 -320
-416 -481 -90 -205 -114 -485 -59 -699 39 -150 148 -302 262 -363 69 -36 529
-169 618 -178 135 -13 300 48 400 150 166 169 192 436 63 631 -61 91 -204 185
-350 229 -137 42 -161 73 -119 154 24 46 117 137 194 190 70 49 180 96 262
113 75 15 93 5 161 -85 63 -83 119 -201 151 -321 25 -94 27 -114 27 -315 1
-197 -2 -226 -26 -340 -38 -176 -103 -367 -212 -618 -153 -358 -184 -457 -207
-667 -11 -108 -6 -362 9 -449 l7 -39 205 -59 c220 -63 235 -64 435 -42 l50 6
0 187 c0 213 14 292 70 410 73 151 157 244 430 476 345 293 510 492 606 730
97 242 113 501 49 756 -42 165 -120 306 -237 430 -190 200 -349 271 -938 424
-186 48 -397 66 -575 48z"/>
<path d="M3060 8954 c-789 -57 -1517 -380 -2069 -918 -277 -271 -477 -545
-636 -871 -191 -392 -264 -682 -337 -1345 -19 -180 -17 -571 5 -705 49 -296
138 -620 234 -845 83 -195 264 -517 310 -552 10 -7 33 -43 51 -80 19 -37 43
-77 55 -90 13 -13 23 -35 24 -48 3 -40 87 -201 142 -274 93 -123 162 -194 352
-367 229 -207 362 -366 446 -534 52 -103 243 -647 243 -692 0 -12 11 -57 24
-100 14 -43 37 -163 52 -268 24 -167 27 -218 26 -420 -1 -271 -13 -445 -43
-649 l-22 -150 22 -17 c20 -16 132 -18 1929 -21 1731 -3 1993 -1 2010 17 3 2
18 101 33 217 31 238 55 391 95 613 34 192 36 340 5 555 -25 169 -40 401 -29
422 4 7 12 38 18 69 25 132 116 201 295 224 28 4 93 17 145 31 99 25 222 42
500 69 274 26 410 65 473 134 50 56 104 159 131 253 44 151 48 192 31 308 -25
179 -52 245 -143 348 -30 35 -76 92 -102 128 -26 35 -50 61 -53 57 -4 -3 -7
15 -7 40 0 26 -5 77 -11 114 -10 57 -9 81 5 148 17 83 58 185 74 185 5 0 56
-80 113 -177 175 -302 667 -1103 815 -1328 43 -66 93 -148 110 -182 18 -34 68
-114 113 -177 112 -157 120 -178 118 -299 l-2 -98 -43 -36 c-52 -43 -72 -80
-72 -133 0 -34 7 -48 42 -86 40 -43 140 -104 172 -104 25 0 25 -26 0 -79 -22
-48 -22 -55 -10 -80 21 -40 94 -109 119 -113 16 -2 25 -15 35 -53 17 -61 50
-98 107 -119 28 -11 51 -30 68 -54 13 -20 51 -66 83 -102 90 -101 285 -367
326 -445 20 -38 48 -100 61 -137 35 -92 53 -116 96 -128 41 -11 410 -3 453 10
15 5 28 5 30 0 4 -10 1716 -16 1740 -5 26 11 29 34 13 110 -10 49 -15 133 -15
279 0 226 -13 341 -36 332 -11 -4 -10 0 2 20 17 26 17 38 -6 199 -5 39 -9 109
-10 157 0 80 -16 240 -40 399 -23 155 -112 352 -190 422 -26 23 -103 75 -171
116 -166 100 -304 194 -359 246 -125 118 -429 333 -571 404 -145 73 -321 78
-759 21 -319 -41 -382 -53 -550 -110 -80 -26 -187 -61 -238 -76 l-92 -27 -28
26 c-15 14 -41 51 -57 82 -26 48 -28 57 -15 65 17 12 27 10 98 -21 38 -17 55
-20 63 -12 16 16 -33 103 -130 233 -111 151 -566 824 -645 958 -158 264 -271
354 -423 337 -56 -7 -59 -5 -87 24 -35 37 -71 40 -132 12 -57 -26 -107 -73
-129 -121 -21 -47 -54 -54 -75 -15 -11 21 -10 27 4 47 9 13 28 38 41 57 28 38
32 85 11 134 -7 18 -50 82 -94 142 -191 260 -189 328 15 532 134 133 163 186
163 291 0 42 -8 91 -20 126 -39 113 -158 261 -310 384 -36 29 -85 72 -110 95
-25 23 -104 79 -175 125 -72 46 -158 104 -191 130 -34 26 -118 89 -188 140
-69 51 -126 97 -126 102 0 5 -12 35 -27 67 -24 52 -26 67 -24 152 2 68 -1 109
-14 150 -130 421 -310 774 -544 1071 -107 135 -346 372 -481 477 -457 354
-969 567 -1531 638 -122 15 -462 27 -569 19z"/>
<path d="M10991 6135 c-162 -46 -286 -150 -367 -309 -86 -168 -83 -394 8 -555
40 -71 147 -177 215 -214 29 -15 171 -62 315 -104 250 -72 268 -76 363 -76
165 0 288 54 402 177 108 115 163 254 163 413 0 205 -92 380 -254 485 -64 41
-60 40 -376 130 -184 52 -229 61 -315 64 -69 3 -117 -1 -154 -11z"/>
</g>
</svg>
