<?xml version="1.0" encoding="UTF-8"?>
<svg xmlns="http://www.w3.org/2000/svg" xmlns:xlink="http://www.w3.org/1999/xlink" width="279.79pt" height="118.13pt" viewBox="0 0 279.79 118.13" version="1.1">
<defs>
<clipPath id="clip1">
  <path d="M 221 4 L 279.789063 4 L 279.789063 75 L 221 75 Z M 221 4 "/>
</clipPath>
<clipPath id="clip2">
  <path d="M 79 82 L 192 82 L 192 118.128906 L 79 118.128906 Z M 79 82 "/>
</clipPath>
</defs>
<g id="surface1">
<path style=" stroke:none;fill-rule:evenodd;fill:rgb(13.299561%,11.799622%,12.199402%);fill-opacity:1;" d="M 131.265625 15.914063 C 129.554688 15.914063 127.84375 15.914063 126.136719 15.902344 C 114.976563 11.921875 122.925781 -4.328125 132.996094 1.09375 C 137.941406 3.730469 138.089844 14.230469 131.265625 15.914063 "/>
<path style=" stroke:none;fill-rule:evenodd;fill:rgb(13.299561%,11.799622%,12.199402%);fill-opacity:1;" d="M 176.71875 11.398438 C 160.164063 13.863281 161.042969 55.898438 173.875 61.835938 C 177.402344 63.46875 183.019531 63.800781 187.195313 61.859375 C 192.703125 59.320313 195.214844 51.296875 195.777344 43.421875 C 197.011719 26.246094 194.703125 8.699219 177.402344 11.398438 C 177.171875 11.433594 176.9375 11.359375 176.71875 11.398438 M 197.78125 68.476563 C 203.1875 72.089844 210.027344 76.984375 219.648438 74.460938 C 218.230469 77.621094 217.085938 81.015625 215.519531 84.019531 C 199.464844 88.976563 192.921875 75.496094 180.335938 73.382813 C 175.777344 72.628906 172.128906 72.882813 168.394531 71.382813 C 157.5625 67.070313 150.6875 55.960938 149.664063 42.664063 C 147.941406 20.652344 156.621094 1.554688 178.109375 0.1875 C 194.507813 -0.847656 205.730469 8.992188 209.503906 21.359375 C 214.691406 38.378906 210.417969 61.136719 197.78125 68.476563 "/>
<path style=" stroke:none;fill-rule:evenodd;fill:rgb(13.299561%,11.799622%,12.199402%);fill-opacity:1;" d="M 111.472656 1.042969 C 110.726563 5.28125 109.199219 8.746094 108.039063 12.570313 C 102.558594 12.558594 97.101563 12.542969 91.632813 12.53125 C 91.582031 32.433594 91.546875 52.324219 91.511719 72.210938 C 86.957031 72.199219 82.390625 72.1875 77.835938 72.175781 C 77.882813 52.296875 77.921875 32.398438 77.957031 12.507813 C 71.816406 12.496094 65.660156 12.484375 59.519531 12.472656 C 59.742188 8.722656 59.070313 4.121094 59.875 0.933594 C 77.078125 0.96875 94.28125 0.992188 111.472656 1.042969 "/>
<g clip-path="url(#clip1)" clip-rule="nonzero">
<path style=" stroke:none;fill-rule:evenodd;fill:rgb(13.299561%,11.799622%,12.199402%);fill-opacity:1;" d="M 238.828125 47.464844 C 236.691406 51.992188 237.242188 58.269531 240.84375 61.320313 C 246.375 65.996094 257.789063 61.992188 259.304688 56.082031 C 260.609375 51.054688 258.765625 46.914063 259.683594 41.25 C 250.988281 40.285156 241.539063 41.761719 238.828125 47.464844 M 279.792969 65.363281 C 277.152344 68.539063 274.90625 72.078125 271.574219 74.570313 C 267.910156 72.613281 264.761719 70.148438 263.039063 66.316406 C 259.464844 68.914063 254.921875 72.871094 248.683594 73.53125 C 231.675781 75.339844 220.28125 67 222.078125 50.394531 C 223.785156 34.582031 241.40625 30.738281 260.050781 31.359375 C 259.84375 26.328125 260.304688 22.324219 258.363281 19.492188 C 252.589844 11.019531 235.191406 20.945313 229.988281 23.703125 C 228.351563 19.917969 225.640625 17.148438 223.859375 13.472656 C 233.480469 7.40625 253.992188 -0.152344 266.933594 7.964844 C 280.023438 16.171875 272.296875 39.0625 274.003906 56.121094 C 274.433594 60.453125 276.214844 63.277344 279.792969 65.363281 "/>
</g>
<path style=" stroke:none;fill-rule:evenodd;fill:rgb(13.299561%,11.799622%,12.199402%);fill-opacity:1;" d="M 22.257813 17 C 18.167969 19.710938 16.910156 25.058594 16.421875 31.824219 C 24.050781 32.605469 33.160156 31.96875 41.367188 32.214844 C 43.109375 19.820313 31.855469 10.664063 22.257813 17 M 56.722656 42.457031 C 43.28125 42.433594 29.839844 42.410156 16.398438 42.382813 C 16.3125 51.175781 18.605469 57.621094 24.566406 60.527344 C 33.550781 64.921875 44.578125 59.964844 50.195313 55.960938 C 51.890625 58.84375 53.734375 61.566406 55.652344 64.226563 C 49.019531 69.585938 42.035156 73.128906 31.023438 73.066406 C 11.074219 72.96875 0.0117188 58.597656 0 38.722656 C 0 22.238281 7.960938 6.171875 25.359375 4.484375 C 49.960938 2.082031 57.789063 19.261719 56.722656 42.457031 "/>
<path style=" stroke:none;fill-rule:evenodd;fill:rgb(13.299561%,11.799622%,12.199402%);fill-opacity:1;" d="M 134.671875 20.542969 C 135.425781 37.132813 134.707031 55.15625 134.902344 72.296875 C 130.578125 72.296875 126.246094 72.285156 121.921875 72.285156 C 121.949219 56.339844 121.984375 40.40625 122.019531 24.460938 C 126.097656 23.03125 130.617188 22.007813 134.671875 20.542969 "/>
<g clip-path="url(#clip2)" clip-rule="nonzero">
<path style=" stroke:none;fill-rule:nonzero;fill:rgb(99.598694%,75.698853%,4.699707%);fill-opacity:1;" d="M 80.679688 83.089844 L 96.46875 83.089844 C 96.46875 83.089844 98.066406 83.457031 98.675781 84.203125 C 99.300781 84.921875 133.949219 135.140625 186.121094 83.152344 C 186.121094 83.152344 188.453125 81.382813 190.160156 82.96875 C 191.871094 84.570313 190.664063 86.523438 190.664063 86.523438 C 190.664063 86.523438 141.847656 157.191406 79.582031 87.195313 C 79.582031 87.195313 78.105469 84.570313 80.679688 83.089844 "/>
</g>
</g>
</svg>
